<svg viewBox="0 0 130 46" fill="none">
    <path
        d="M101.686 35v-2.256l2.688-.576c.032-1.184.048-2.448.048-3.792V4.808l-2.976-.48V2.312l10.08-2.16.768.48-.192 6.72v14.736l7.776-7.584-3.648-.576v-2.112h11.568v2.112l-4.32.624-4.224 3.984 6.768 13.488 3.072.72V35h-9.792l-5.424-11.472-1.776 1.68v3.504c.032 1.248.048 2.416.048 3.504l2.592.528V35h-13.056zM72.203 35v-2.256l2.592-.576c.032-1.152.048-2.4.048-3.744v-6.288c0-1.312-.016-2.32-.048-3.024 0-.736-.032-1.584-.096-2.544l-2.928-.432v-1.872l9.456-3.216.864.528.288 3.456c1.248-1.472 2.48-2.496 3.696-3.072a8.979 8.979 0 013.984-.912c2.08 0 3.744.688 4.992 2.064 1.28 1.376 1.92 3.44 1.92 6.192v9.216c0 1.312.016 2.56.048 3.744l2.4.48V35H86.747v-2.256l2.496-.528c.032-1.184.048-2.432.048-3.744V19.88c0-1.536-.208-2.608-.624-3.216-.416-.64-1.088-.96-2.016-.96-1.248 0-2.624.576-4.128 1.728V28.472c0 1.344.016 2.608.048 3.792l2.256.48V35H72.203zM57.303 35.72c-2.496 0-4.656-.512-6.48-1.536a10.88 10.88 0 01-4.224-4.368c-.992-1.888-1.488-4.064-1.488-6.528 0-2.464.528-4.608 1.584-6.432a11.555 11.555 0 014.416-4.272c1.856-1.024 3.92-1.536 6.192-1.536 2.272 0 4.32.496 6.144 1.488 1.856.992 3.328 2.416 4.416 4.272 1.088 1.824 1.632 3.984 1.632 6.48 0 2.496-.496 4.672-1.488 6.528a10.88 10.88 0 01-4.224 4.368c-1.824 1.024-3.984 1.536-6.48 1.536zm0-2.496c1.344 0 2.352-.784 3.024-2.352.672-1.568 1.008-4.048 1.008-7.44 0-3.424-.336-5.92-1.008-7.488-.672-1.568-1.68-2.352-3.024-2.352-1.376 0-2.4.784-3.072 2.352-.672 1.568-1.008 4.064-1.008 7.488 0 3.392.336 5.872 1.008 7.44.672 1.568 1.696 2.352 3.072 2.352zM29.451 35v-2.256l2.64-.576c.032-1.216.048-2.432.048-3.648.032-1.216.048-2.416.048-3.6V4.808l-2.976-.48V2.312l10.08-2.16.768.48-.192 6.72v21.216l.096 3.648 2.64.528V35H29.451zM.392 45.896V43.64l2.688-.576c.032-1.504.048-2.912.048-4.224.032-1.28.048-2.512.048-3.696V22.136c0-1.312-.016-2.32-.048-3.024 0-.736-.032-1.584-.096-2.544l-2.976-.432v-1.872l9.408-3.216.816.48.192 2.688c2.016-2.112 4.384-3.168 7.104-3.168 1.76 0 3.344.464 4.752 1.392 1.408.928 2.528 2.304 3.36 4.128.864 1.824 1.296 4.064 1.296 6.72 0 2.56-.48 4.784-1.44 6.672-.96 1.856-2.224 3.28-3.792 4.272a9.105 9.105 0 01-5.04 1.488c-2.464 0-4.48-.832-6.048-2.496V38.792c.032 1.28.064 2.656.096 4.128l3.072.72v2.256H.392zm13.68-30.672c-.608 0-1.184.128-1.728.384-.512.256-1.024.576-1.536.96v13.92c.96.8 2 1.2 3.12 1.2 1.44 0 2.608-.672 3.504-2.016.928-1.344 1.392-3.44 1.392-6.288 0-2.848-.448-4.912-1.344-6.192-.864-1.312-2-1.968-3.408-1.968z"
        fill="hsla(67, 40%, 62%, 1.00)" />
</svg>